<svg xmlns="http://www.w3.org/2000/svg" viewBox="0 0 640 340" preserveAspectRatio="xMidYMid slice">
  <defs>
    <linearGradient id="bgBread" x1="0" y1="0" x2="1" y2="1">
      <stop offset="0" stop-color="#3a2a17"/>
      <stop offset="1" stop-color="#1a130c"/>
    </linearGradient>
  </defs>
  <rect width="640" height="340" fill="url(#bgBread)"/>
  <ellipse cx="330" cy="288" rx="220" ry="26" fill="#0d0906" opacity=".38"/>
  <!-- croissant, sitting clear on the left -->
  <path d="M110 256q8-50 52-56 44-6 56 38" stroke="#c98b4b" stroke-width="42" fill="none" stroke-linecap="round"/>
  <path d="M116 250q8-44 48-50 40-5 51 34" stroke="#eab26e" stroke-width="18" fill="none" stroke-linecap="round" opacity=".55"/>
  <path d="M146 190v30M176 186v32M202 202v28" stroke="#a86d33" stroke-width="5" stroke-linecap="round" opacity=".8"/>
  <!-- back oval loaf -->
  <ellipse cx="340" cy="192" rx="108" ry="62" fill="#c98b4b"/>
  <ellipse cx="340" cy="184" rx="108" ry="56" fill="#e0a463"/>
  <path d="M276 172q34-26 68 0M330 158q32-24 64 2" stroke="#a86d33" stroke-width="9" fill="none" stroke-linecap="round"/>
  <path d="M292 208q46-20 92 0" stroke="#a86d33" stroke-width="7" fill="none" stroke-linecap="round" opacity=".6"/>
  <!-- front round loaf -->
  <ellipse cx="452" cy="230" rx="88" ry="54" fill="#b8783d"/>
  <ellipse cx="452" cy="222" rx="88" ry="48" fill="#d99a5c"/>
  <path d="M404 210q48-28 96 0" stroke="#96602c" stroke-width="10" fill="none" stroke-linecap="round"/>
  <path d="M414 238q38-20 76 0" stroke="#96602c" stroke-width="8" fill="none" stroke-linecap="round" opacity=".7"/>
  <!-- small roll -->
  <ellipse cx="556" cy="258" rx="42" ry="27" fill="#e0a463"/>
  <path d="M528 254q28-18 56 0" stroke="#a86d33" stroke-width="7" fill="none" stroke-linecap="round"/>
  <!-- crumbs -->
  <circle cx="248" cy="282" r="6" fill="#c98b4b" opacity=".8"/>
  <circle cx="376" cy="286" r="5" fill="#c98b4b" opacity=".7"/>
  <circle cx="500" cy="280" r="4" fill="#c98b4b" opacity=".6"/>
</svg>
